# xmcd
#
# Track frame offsets:
#	150
#	11736
#	21266
#	31146
#	39581
#	50578
#	60263
#	71925
#	82531
#	91845
#	104023
#	114258
#	123365
#	131973
#	140855
#	151891
#	164772
#	173436
#
# Disc length: 2446 seconds
#
# Revision: 1
# Processed by: cddbd v1.5.2PL0 Copyright (c) Steve Scherf et al.
# Submitted via: audiograbber 1.83.01
#
DISCID=ee098c12
DTITLE=Johnny Cash - Now, There Was A Song!
DYEAR=2011
DGENRE=Country
TTITLE0=Seasons Of My Heart
TTITLE1=I Feel Better All Over
TTITLE2=I Couldn't Keep From Crying
TTITLE3=Time Changes Everything
TTITLE4=My Shoes Keep Walking Back To You
TTITLE5=I'd Just Be Fool Enough (To Fall)
TTITLE6=Transfusion Blues
TTITLE7=Why Do You Punish Me (For Loving You)
TTITLE8=I Will Miss You When You Go
TTITLE9=I'm So Lonesome I Could Cry
TTITLE10=Just One More
TTITLE11=Honky Tonk Girl
TTITLE12=The Rebel-Johnny Yuma
TTITLE13=Second Honeymoon
TTITLE14=I Heard That Lonesome Whistle
TTITLE15=Locomotive Man
TTITLE16=Lorena
TTITLE17=Girl In Saskatoon
EXTD=
EXTT0=
EXTT1=
EXTT2=
EXTT3=
EXTT4=
EXTT5=
EXTT6=
EXTT7=
EXTT8=
EXTT9=
EXTT10=
EXTT11=
EXTT12=
EXTT13=
EXTT14=
EXTT15=
EXTT16=
EXTT17=
PLAYORDER=
